<!--?xml version="1.0" encoding="UTF-8" standalone="no"?-->

<svg version="1.1" xmlns="http://www.w3.org/2000/svg" xmlns:xlink="http://www.w3.org/1999/xlink" preserveAspectRatio="xMidYMid meet" viewBox="0 0 1200 800" width="1200" height="800" class="" style=""><defs><path d="" id="a2QbMPpNLW" class="lkMTKhGW_0"></path><path d="" id="eesGuYxVV" class="lkMTKhGW_1"></path><path d="M358.05 343.91C358.05 343.91 358.05 343.91 358.05 343.91C357.12 337.39 359.72 330.87 364.89 326.79C365.68 326.17 367.66 324.61 370.83 322.1L440 325.86L392.63 327.37L388.12 346.92L379.85 373.98L372.33 402.56L449.02 354.44L437.75 359.7L424.96 372.48L425.72 389.77L441.5 395.04L455.04 355.19L449.02 385.26L458.05 395.79L493.38 346.92L501.66 316.09L494.89 312.33L482.86 322.1L476.09 349.92L473.08 395.79L509.17 349.17L507.67 357.44L507.67 365.71L496.39 380L493.38 386.01L497.14 394.28L512.18 393.53L527.22 352.18L521.2 370.98L521.96 396.54L531.73 394.28L546.77 352.18L546.02 363.46L543.01 389.77L550.53 395.79L560.3 390.53L582.86 353.68L591.88 336.39L594.89 317.59L587.37 315.34L577.6 325.11L569.32 359.7L570.83 383.01L577.6 395.04L593.38 391.28L615.94 348.42L609.93 359.7L608.42 369.47L606.17 390.53L616.69 399.55L627.22 388.27L635.49 352.18L615.19 356.69L628.72 356.69L649.78 377.74L661.81 344.66L675.34 320.6L688.12 326.62L676.84 405.56L697.14 360.45L705.41 323.61L721.96 319.1L722.71 336.39L718.95 401.05L727.22 369.47L736.99 336.39L750.53 318.34L759.55 322.86L759.55 341.65L758.05 357.44L752.03 379.25L757.29 394.28L770.08 394.28L783.61 355.19L781.35 369.47L781.35 386.01L789.63 397.29L802.41 388.27L810.68 350.68L788.87 356.69L800.15 355.94L823.46 371.73L830.23 352.18L824.96 398.8L846.77 352.93L848.27 383.01L857.29 380.75L875.34 352.18L869.32 376.24L867.82 396.54L899.4 383.76" id="bVtropd10" class="lkMTKhGW_2"></path><path d="M548.93 349.17L554.75 349.75L565.21 349.75L578 352.07L592.54 352.07L603.59 350.91" id="b2CCid3eLh" class="lkMTKhGW_3"></path><path d="M893.91 353.6L884.82 346.33L874.82 332.69" id="a53PIJBci2" class="lkMTKhGW_4"></path></defs><g><g><g><g><use xlink:href="#a2QbMPpNLW" opacity="1" fill-opacity="0" stroke="#000000" stroke-width="17" stroke-opacity="1"></use></g></g><g><g><use xlink:href="#eesGuYxVV" opacity="1" fill-opacity="0" stroke="#000000" stroke-width="17" stroke-opacity="1"></use></g></g><g><g><use xlink:href="#bVtropd10" opacity="1" fill-opacity="0" stroke="#000000" stroke-width="17" stroke-opacity="1"></use></g></g><g><g><use xlink:href="#b2CCid3eLh" opacity="1" fill-opacity="0" stroke="#000000" stroke-width="16" stroke-opacity="1"></use></g></g><g><g><use xlink:href="#a53PIJBci2" opacity="1" fill-opacity="0" stroke="#000000" stroke-width="22" stroke-opacity="1"></use></g></g></g></g><style data-made-with="vivus-instant">.lkMTKhGW_0{stroke-dasharray:0 2;stroke-dashoffset:1;}.start .lkMTKhGW_0{animation:lkMTKhGW_draw 1ms linear 0ms forwards;}.lkMTKhGW_1{stroke-dasharray:0 2;stroke-dashoffset:1;}.start .lkMTKhGW_1{animation:lkMTKhGW_draw 1ms linear 1ms forwards;}.lkMTKhGW_2{stroke-dasharray:2398 2400;stroke-dashoffset:2399;}.start .lkMTKhGW_2{animation:lkMTKhGW_draw 2411ms linear 2ms forwards;}.lkMTKhGW_3{stroke-dasharray:55 57;stroke-dashoffset:56;}.start .lkMTKhGW_3{animation:lkMTKhGW_draw 56ms linear 2413ms forwards;}.lkMTKhGW_4{stroke-dasharray:29 31;stroke-dashoffset:30;}.start .lkMTKhGW_4{animation:lkMTKhGW_draw 30ms linear 2469ms forwards;}@keyframes lkMTKhGW_draw{100%{stroke-dashoffset:0;}}@keyframes lkMTKhGW_fade{0%{stroke-opacity:1;}93.33333333333333%{stroke-opacity:1;}100%{stroke-opacity:0;}}</style></svg>