<?xml version="1.0" encoding="UTF-8" standalone="no"?>
<!DOCTYPE svg PUBLIC "-//W3C//DTD SVG 1.1//EN" "http://www.w3.org/Graphics/SVG/1.1/DTD/svg11.dtd">
<svg version="1.1" xmlns="http://www.w3.org/2000/svg" xmlns:xlink="http://www.w3.org/1999/xlink" preserveAspectRatio="xMidYMid meet" viewBox="0 0 1200 800" width="1200" height="800"><defs><path d="M81.12 357.25L68.63 350.44L56.14 347.03L50.46 335.67L45.92 323.18L52.74 311.83L64.09 305.01L76.58 300.47L90.21 300.47L103.84 300.47L117.46 300.47L129.95 302.74L142.45 303.88L154.94 301.61L166.29 293.66L154.94 286.84L143.58 293.66L135.63 303.88L132.23 316.37L128.82 328.86L127.68 341.35L128.82 353.84L126.55 366.33L126.55 379.96L123.14 392.45L122.01 404.94L117.46 417.43L108.38 426.52L95.89 431.06L84.53 436.74L72.04 439.01L59.55 434.47L47.06 428.79L35.7 423.11" id="a1nPCaOT"></path><path d="M265.63 286.84L241.24 289.76L219.29 306.83L206.63 330.75L192.5 350.27L160.75 368.81L141.24 372.68L114.41 375.12L133.93 358.05C138.52 361.09 141.39 362.72 142.54 362.93C144.07 363.2 145.3 363.2 146.22 362.93C159.68 367.5 168.44 372.26 172.52 377.21C175.92 381.34 175.92 381.34 172.52 377.21C172.52 377.21 183.1 389.24 183.1 389.24C185 391.26 189.75 396.31 197.34 404.39L219.29 423.58L238.8 436.1C247.11 434.58 253.5 432.39 257.98 429.53C262.45 426.67 265 421.06 265.63 412.69" id="akUCKyfx4"></path><path d="M285.61 420.4L296.86 414.15L304.36 402.9L303.11 390.4L290.61 386.65L283.11 397.9L279.36 410.4L283.11 422.9L294.36 430.4L306.86 434.15L319.36 427.9L328.11 416.65L334.36 405.4L338.11 392.9L349.36 385.4L353.11 397.9L351.86 410.4L349.36 422.9C348.04 425.15 347.58 427.32 348 429.41C348.42 431.49 349.7 433.49 351.86 435.4L360.61 425.4L363.11 412.9L371.86 402.9C373.65 399.04 374.76 396.63 375.21 395.66C377.18 391.38 382.88 390.5 386.06 393.98C386.43 394.39 387.37 395.41 388.86 397.05C388.19 400.08 388.19 402.03 388.86 402.9C390.95 405.61 389.86 411.44 385.61 420.4C387.2 423.11 389.14 425.61 391.43 427.9C393.72 430.19 396.37 432.28 399.36 434.15L414.36 425.4L421.86 410.4L430.61 392.9L438.11 379.1L445.61 335.35L438.11 311.6L430.61 311.6L421.86 357.85L421.86 385.4L434.36 427.9C436.36 431.65 438.92 433.74 442.04 434.15C445.17 434.57 448.86 433.32 453.11 430.4L465.61 420.4L478.11 392.9C488.74 389.78 495.82 387.69 499.36 386.65C502.91 385.61 507.49 389.36 513.11 397.9L483.11 379.1L474.36 427.9L486.86 435.4L499.36 422.9L504.36 405.4C504.54 413.94 505.36 420.61 506.82 425.4C507.56 427.85 508.41 429.54 509.35 430.47C511.65 432.72 515.04 433.46 518.07 432.38C519.74 431.78 523.92 430.29 530.61 427.9L540.61 414.15L549.36 397.9L549.36 369.1L540.61 365.7L537.97 388.54L565.61 390.4L565.61 410.4L565.61 425.4L584.36 434.15L604.36 410.4L620.61 390.4L604.36 425.4L626.86 435.4L641.86 425.4L644.85 395.47L634.36 382.85L626.86 410.4L658.11 420.4L676.86 399.3L763.46 298.15L728.96 324.02C725.37 340.93 722.97 355.95 721.78 369.1C721.31 374.22 721.13 378.61 721.22 382.27C721.58 395.47 727.2 407.98 736.84 417.01C737.32 417.46 738.53 418.59 740.46 420.4C746.69 424.08 754.35 427.42 763.46 430.4C768.36 432.01 774.01 433.54 780.41 434.99C789.92 437.15 799.89 436.14 808.78 432.11C810.02 431.55 813.11 430.15 818.07 427.9L832.44 416.65L851.13 390.4L861.19 349.89L851.13 311.6C844.13 305.08 839.76 301.01 838.01 299.38C829.07 291.04 816.75 287.33 804.68 289.36C803.4 289.57 800.2 290.11 795.07 290.97C791.17 291.44 787.3 293.84 783.47 298.15C779.63 302.46 775.84 308.69 772.08 316.84C772.16 321.89 773.04 327.53 774.71 333.76C776.39 339.99 778.87 346.8 782.14 354.2L818.07 365.7C822.36 366.52 826.67 366.52 830.98 365.7C837.45 364.47 834.64 367.98 846.5 362.23C854.41 358.4 865.06 351.89 878.43 342.71L882.75 290.97L882.75 435.4C887.26 421.24 891.44 410.4 895.27 402.9C899.1 395.4 902.59 391.24 905.74 390.4C908.47 389.16 911.38 388.54 914.5 388.54C917.61 388.54 920.92 389.16 924.42 390.4L918.68 410.4L899.99 422.9L912.93 434.15C919 433.11 924.04 431.86 928.06 430.4C932.08 428.94 935.08 427.28 937.05 425.4C938.39 425.24 940.74 422.87 944.09 418.29C947.45 413.71 951.81 406.91 957.17 397.9L990.23 392.9L967.23 385.4L949.98 427.9L967.23 434.15C971.74 431.86 975.43 428.11 978.3 422.9C981.18 417.69 983.24 411.03 984.48 402.9L990.23 434.15C997.56 432.28 1003.14 431.03 1006.97 430.4C1010.8 429.78 1012.26 428.11 1011.34 425.4L1021.85 410.4C1037.3 398.74 1045.38 391.46 1046.1 388.54C1046.82 385.62 1040.17 387.08 1026.16 392.9L1026.16 430.4L1044.84 430.4L1048.36 423.4C1053.45 416.71 1057.06 409.88 1059.21 402.9C1067.41 376.31 1074.75 350.21 1077.63 324.02C1078.56 315.55 1076.99 313.13 1075.44 308.82C1074.84 307.16 1074.32 305.85 1073.87 304.89C1072.25 301.43 1067.84 300.35 1064.81 302.67C1064.81 302.67 1064.81 302.67 1064.81 302.67C1062.89 302.67 1062.07 302.63 1062.36 302.55C1061.7 295.47 1060.65 297.56 1059.21 308.82C1057.78 320.07 1054.9 339.04 1050.59 365.7C1050.78 376.38 1052.07 387.12 1054.46 397.9C1056.86 408.69 1060.36 419.52 1064.96 430.4L1085.08 430.4L1098.02 410.4C1100.48 401.65 1104.79 395.82 1110.95 392.9C1120.2 388.53 1133.55 396.35 1134.99 392.9C1136.42 389.45 1121.73 381.92 1116.7 379.1C1113.35 377.21 1107.12 383.48 1098.02 397.9C1098.09 408.86 1098.73 417.36 1099.93 423.4C1101.13 429.44 1102.88 433.02 1105.2 434.15L1116.7 427.9L1128.2 420.4L1128.2 405.4C1130.09 413.94 1132.35 420.61 1134.99 425.4C1137.62 430.19 1140.63 433.11 1144.01 434.15L1165.91 422.9L1172.75 399.3" id="a1uassajH5"></path><path d="M371.31 329.79L397.53 333.82L423.75 335.84C430.16 335.84 434.18 335.84 435.78 335.84C435.78 335.84 463.86 335.84 463.86 335.84C463.86 335.84 463.86 335.84 463.86 335.84C468.23 335.5 472.34 335.5 476.19 335.84L502.41 333.82" id="b6EcgNYdf"></path></defs><g><g><g><g><use xlink:href="#a1nPCaOT" opacity="1" fill-opacity="0" stroke="#000000" stroke-width="11" stroke-opacity="1"></use></g></g><g><g><use xlink:href="#akUCKyfx4" opacity="1" fill-opacity="0" stroke="#000000" stroke-width="12" stroke-opacity="1"></use></g></g><g><g><use xlink:href="#a1uassajH5" opacity="1" fill-opacity="0" stroke="#000000" stroke-width="11" stroke-opacity="1"></use></g></g><g><g><use xlink:href="#b6EcgNYdf" opacity="1" fill-opacity="0" stroke="#000000" stroke-width="11" stroke-opacity="1"></use></g></g></g></g></svg>