<!--?xml version="1.0" encoding="UTF-8" standalone="no"?-->

<svg version="1.1" xmlns="http://www.w3.org/2000/svg" xmlns:xlink="http://www.w3.org/1999/xlink" preserveAspectRatio="xMidYMid meet" viewBox="488.8111924242759 301.10241020595885 413.3471074380167 122.41735537190095" width="398.35" height="109.92" style=""><defs><path d="M496.31 328.44L496.31 344.14L496.31 358.19L496.31 373.89L496.31 385.46L496.31 395.38L496.31 405.3L498.79 418.52" id="a1OaKPtVPB" class="sxorWUlI_0"></path><path d="M498.79 352.4L503.75 344.14L511.19 338.35L521.1 337.53L529.37 342.49L533.5 351.58L535.15 361.49L535.15 371.41L530.2 379.68L522.76 386.29L512.84 386.29L503.75 382.16L499.62 373.07L496.31 363.97" id="a4FiGsBUD" class="sxorWUlI_1"></path><path d="M579.78 337.53L570.69 340.67L563.25 346.97L557.47 354.83L557.47 364.27L559.12 373.71L566.56 380.78L575.65 385.5L585.57 386.29L594.66 381.57L599.62 373.71L601.27 364.27L601.27 354.83L597.14 346.18L589.7 340.67L570.69 337.49" id="e2RlgQG00i" class="sxorWUlI_2"></path><path d="M621.93 327.61L621.93 338.35L621.93 348.27L622.76 359.84L623.58 370.59L624.41 380.5L623.58 390.42L625.24 378.85L626.06 368.11L626.06 358.19L626.89 348.27L633.5 340.83L641.77 335.88L651.68 337.53" id="a4UTqfw6Ma" class="sxorWUlI_3"></path><path d="M666.12 313.56L666.12 324.3L665.52 334.22L665.52 344.14L665.52 354.06L664.91 363.97L666.12 373.89L666.73 383.81L673.43 387.11L680.74 387.11L688.05 387.11" id="d1rFi86SKj" class="sxorWUlI_4"></path><path d="M653.34 335.88L665.52 335.88L676.69 338.35L688.87 339.18" id="b1sAgqNCiR" class="sxorWUlI_5"></path><path d="M728.54 314.39L719.43 314.39L711.01 315.3L706.8 325.35L706.1 336.32L705.4 347.29L705.4 359.17L705.4 370.14L706.1 381.11L706.1 392.07" id="g4RYtJldl7" class="sxorWUlI_6"></path><path d="M689.7 336.7L707.88 336.7L718.63 336.7L728.54 338.35" id="d2LMsbLR43" class="sxorWUlI_7"></path><path d="M757.78 332.57L747.58 332.57L739.73 337.53L735.03 346.62L732.67 357.36L733.46 367.28L737.38 376.37L745.23 381.33L754.64 385.46L764.05 386.29L772.68 383.81L778.17 376.37L778.17 366.45L778.96 356.54L775.82 346.62L770.33 339.18L761.7 335.88L752.29 334.22" id="a28NC7p9Mp" class="sxorWUlI_8"></path><path d="M797.96 308.6L797.96 321L798.58 330.92L799.2 342.49L800.44 352.4L800.44 362.32L800.44 372.24L799.2 382.16L799.2 392.9" id="c11hdUgAW7" class="sxorWUlI_9"></path><path d="M827.72 330.92L827.72 340.83L827.72 350.75L827.72 361.49L827.72 372.24L827.72 382.16L827.72 392.07" id="f6rCnW0aR8" class="sxorWUlI_10"></path><path d="M820.28 318.52L829.37 316.04L826.89 325.13" id="b3x5HcXby6" class="sxorWUlI_11"></path><path d="M869.86 333.4L861.6 338.35L854.99 346.62L850.86 356.54L850.86 366.45L853.34 375.54L859.95 383.81L869.86 386.29L879.78 385.46L888.05 380.5L891.35 371.41L894.66 362.32L893.01 352.4L888.87 343.31L881.44 335.88L872.34 331.74L863.25 335.05" id="jAfrCevyr" class="sxorWUlI_12"></path></defs><g><g><g><use xlink:href="#a1OaKPtVPB" opacity="1" fill-opacity="0" stroke="#000000" stroke-width="10" stroke-opacity="1"></use></g></g><g><g><use xlink:href="#a4FiGsBUD" opacity="1" fill-opacity="0" stroke="#000000" stroke-width="15" stroke-opacity="1"></use></g></g><g><g><use xlink:href="#e2RlgQG00i" opacity="1" fill-opacity="0" stroke="#000000" stroke-width="15" stroke-opacity="1"></use></g></g><g><g><use xlink:href="#a4UTqfw6Ma" opacity="1" fill-opacity="0" stroke="#000000" stroke-width="15" stroke-opacity="1"></use></g></g><g><g><use xlink:href="#d1rFi86SKj" opacity="1" fill-opacity="0" stroke="#000000" stroke-width="15" stroke-opacity="1"></use></g></g><g><g><use xlink:href="#b1sAgqNCiR" opacity="1" fill-opacity="0" stroke="#000000" stroke-width="15" stroke-opacity="1"></use></g></g><g><g><use xlink:href="#g4RYtJldl7" opacity="1" fill-opacity="0" stroke="#000000" stroke-width="15" stroke-opacity="1"></use></g></g><g><g><use xlink:href="#d2LMsbLR43" opacity="1" fill-opacity="0" stroke="#000000" stroke-width="15" stroke-opacity="1"></use></g></g><g><g><use xlink:href="#a28NC7p9Mp" opacity="1" fill-opacity="0" stroke="#000000" stroke-width="15" stroke-opacity="1"></use></g></g><g><g><use xlink:href="#c11hdUgAW7" opacity="1" fill-opacity="0" stroke="#000000" stroke-width="15" stroke-opacity="1"></use></g></g><g><g><use xlink:href="#f6rCnW0aR8" opacity="1" fill-opacity="0" stroke="#000000" stroke-width="15" stroke-opacity="1"></use></g></g><g><g><use xlink:href="#b3x5HcXby6" opacity="1" fill-opacity="0" stroke="#000000" stroke-width="15" stroke-opacity="1"></use></g></g><g><g><use xlink:href="#jAfrCevyr" opacity="1" fill-opacity="0" stroke="#000000" stroke-width="15" stroke-opacity="1"></use></g></g></g><style data-made-with="vivus-instant">.sxorWUlI_0{stroke-dasharray:91 93;stroke-dashoffset:92;animation:sxorWUlI_draw 150ms linear 0ms forwards;}.sxorWUlI_1{stroke-dasharray:128 130;stroke-dashoffset:129;animation:sxorWUlI_draw 211ms linear 150ms forwards;}.sxorWUlI_2{stroke-dasharray:156 158;stroke-dashoffset:157;animation:sxorWUlI_draw 257ms linear 362ms forwards;}.sxorWUlI_3{stroke-dasharray:135 137;stroke-dashoffset:136;animation:sxorWUlI_draw 222ms linear 619ms forwards;}.sxorWUlI_4{stroke-dasharray:93 95;stroke-dashoffset:94;animation:sxorWUlI_draw 154ms linear 842ms forwards;}.sxorWUlI_5{stroke-dasharray:36 38;stroke-dashoffset:37;animation:sxorWUlI_draw 60ms linear 996ms forwards;}.sxorWUlI_6{stroke-dasharray:96 98;stroke-dashoffset:97;animation:sxorWUlI_draw 159ms linear 1057ms forwards;}.sxorWUlI_7{stroke-dasharray:39 41;stroke-dashoffset:40;animation:sxorWUlI_draw 65ms linear 1216ms forwards;}.sxorWUlI_8{stroke-dasharray:167 169;stroke-dashoffset:168;animation:sxorWUlI_draw 275ms linear 1281ms forwards;}.sxorWUlI_9{stroke-dasharray:85 87;stroke-dashoffset:86;animation:sxorWUlI_draw 140ms linear 1557ms forwards;}.sxorWUlI_10{stroke-dasharray:62 64;stroke-dashoffset:63;animation:sxorWUlI_draw 103ms linear 1698ms forwards;}.sxorWUlI_11{stroke-dasharray:19 21;stroke-dashoffset:20;animation:sxorWUlI_draw 32ms linear 1801ms forwards;}.sxorWUlI_12{stroke-dasharray:161 163;stroke-dashoffset:162;animation:sxorWUlI_draw 265ms linear 1834ms forwards;}@keyframes sxorWUlI_draw{100%{stroke-dashoffset:0;}}@keyframes sxorWUlI_fade{0%{stroke-opacity:1;}93.65079365079364%{stroke-opacity:1;}100%{stroke-opacity:0;}}</style></svg>