<?xml version="1.0" encoding="UTF-8" standalone="no"?>
<!DOCTYPE svg PUBLIC "-//W3C//DTD SVG 1.1//EN" "http://www.w3.org/Graphics/SVG/1.1/DTD/svg11.dtd">
<svg version="1.1" xmlns="http://www.w3.org/2000/svg" xmlns:xlink="http://www.w3.org/1999/xlink" preserveAspectRatio="xMidYMid meet" viewBox="0 0 1200 800" width="1200" height="800"><defs><path d="M56.25 289.93L56.67 308.97L57.1 328.02L57.52 347.06L57.95 366.1L58.37 385.14L57.93 404.21L58.36 423.25L58.78 442.29L58.34 461.35L59.31 483.25L59.19 499.44L60.48 518.46" id="b1fipRyoR"></path><path d="M1086.14 306.73L1070.58 318.05L1059.27 333.61L1049.37 350.58L1043.71 368.97L1043.71 388.77L1050.78 408.57L1060.68 425.55L1081.9 439.69L1098.87 448.18L1118.67 445.35L1137.06 438.28L1152.62 425.55L1161.11 408.57L1166.76 390.18L1169.59 370.38L1158.28 354.82L1151.21 336.44L1142.72 319.46L1125.75 308.15L1107.36 303.9L1086.14 305.32L1069.17 315.22" id="a1NDtYTN6"></path><path d="M980.06 238.84L972.99 257.23L989.96 265.71L1001.28 250.16L988.55 234.6L971.57 243.08" id="afGW2ISV"></path><path d="M978.64 288.35L980.06 308.15L982.89 327.95L982.89 350.58L980.06 370.38L978.64 390.18L978.64 411.4L980.06 431.2L978.64 451.01L980.06 470.81" id="bbIFpxPp3"></path><path d="M905.09 213.38L905.09 233.18L905.09 252.99L906.51 272.79L907.92 301.08L910.75 333.61L910.75 359.07L912.17 383.11L912.17 402.91L913.58 422.72L913.58 442.52L907.92 460.91" id="cG3E9FI3a"></path><path d="M760.82 309.56L745.26 323.71L732.53 337.85L725.46 356.24L725.46 377.45L725.46 397.26L728.29 417.06L743.85 429.79L762.24 436.86L782.04 441.1L801.84 439.69L820.23 434.03L834.37 421.3L838.62 402.91L840.03 383.11L841.44 361.9L840.03 340.68L834.37 320.88L820.23 305.32L799.01 303.9L779.21 303.9L760.82 309.56L743.85 319.46" id="bJULlxxd9"></path><path d="M599.58 309.56L619.38 308.15L644.84 305.32L667.47 305.32L700 306.73" id="cirL4l3cg"></path><path d="M732.53 251.57L704.25 240.26L687.27 231.77L668.88 236.01L651.91 245.91L643.42 262.89L640.6 282.69L642.01 302.49L643.42 322.29L643.42 342.09L644.84 361.9L644.84 381.7L643.42 401.5L643.42 421.3L643.42 462.32" id="d2cr7poAgU"></path><path d="M497.74 316.63L514.71 303.9L537.34 301.08L557.14 299.66L576.95 301.08L596.75 303.9" id="cH31lQ1Fw"></path><path d="M540.17 254.4L540.17 274.2L537.34 294L535.93 313.81L533.1 333.61L533.1 353.41L533.1 373.21L537.34 391.6L537.34 411.4L538.76 431.2L555.73 441.1L574.12 446.76L593.92 443.93" id="h1giVP0wpM"></path><path d="M407.21 278.44L408.63 298.25L410.04 318.05L411.46 337.85L410.04 357.65L410.04 377.45L411.46 397.26L412.87 417.06L412.87 436.86L412.87 456.66L412.87 431.2L412.87 408.57L414.29 388.77L417.12 368.97L419.94 349.17L427.02 330.78L438.33 315.22L455.31 305.32L475.11 302.49L493.49 306.73" id="aBDPqHneU"></path><path d="M268.6 305.32L251.63 315.22L240.31 330.78L233.24 350.58L231.83 370.38L233.24 390.18L237.48 408.57L248.8 424.13L261.53 438.28L281.33 442.52L301.13 442.52L319.52 438.28L335.08 426.96L346.39 411.4L349.22 391.6L352.05 371.8L349.22 352L343.57 333.61L335.08 315.22L318.11 306.73L298.3 303.9L278.5 302.49L258.7 303.9L243.14 316.63L236.07 335.02" id="g9B6emY9j"></path><path d="M64.92 400L76.24 337.52L81.9 319.13L97.45 306.4L117.26 303.57L137.06 304.99L154.03 313.47L166.76 327.62L175.25 344.59L176.66 364.39L176.66 384.19L172.42 402.58L163.93 419.55L152.62 435.11L134.23 443.6L114.43 446.43L97.45 437.94L81.9 425.21L60.68 391.27" id="azOvusfrD"></path></defs><g><g><g><g><use xlink:href="#b1fipRyoR" opacity="1" fill-opacity="0" stroke="#000000" stroke-width="33" stroke-opacity="1"></use></g></g><g><g><use xlink:href="#a1NDtYTN6" opacity="1" fill-opacity="0" stroke="#000000" stroke-width="40" stroke-opacity="1"></use></g></g><g><g><use xlink:href="#afGW2ISV" opacity="1" fill-opacity="0" stroke="#000000" stroke-width="35" stroke-opacity="1"></use></g></g><g><g><use xlink:href="#bbIFpxPp3" opacity="1" fill-opacity="0" stroke="#000000" stroke-width="35" stroke-opacity="1"></use></g></g><g><g><use xlink:href="#cG3E9FI3a" opacity="1" fill-opacity="0" stroke="#000000" stroke-width="39" stroke-opacity="1"></use></g></g><g><g><use xlink:href="#bJULlxxd9" opacity="1" fill-opacity="0" stroke="#000000" stroke-width="39" stroke-opacity="1"></use></g></g><g><g><use xlink:href="#cirL4l3cg" opacity="1" fill-opacity="0" stroke="#000000" stroke-width="33" stroke-opacity="1"></use></g></g><g><g><use xlink:href="#d2cr7poAgU" opacity="1" fill-opacity="0" stroke="#000000" stroke-width="33" stroke-opacity="1"></use></g></g><g><g><use xlink:href="#cH31lQ1Fw" opacity="1" fill-opacity="0" stroke="#000000" stroke-width="33" stroke-opacity="1"></use></g></g><g><g><use xlink:href="#h1giVP0wpM" opacity="1" fill-opacity="0" stroke="#000000" stroke-width="33" stroke-opacity="1"></use></g></g><g><g><use xlink:href="#aBDPqHneU" opacity="1" fill-opacity="0" stroke="#000000" stroke-width="33" stroke-opacity="1"></use></g></g><g><g><use xlink:href="#g9B6emY9j" opacity="1" fill-opacity="0" stroke="#000000" stroke-width="33" stroke-opacity="1"></use></g></g><g><g><use xlink:href="#azOvusfrD" opacity="1" fill-opacity="0" stroke="#000000" stroke-width="33" stroke-opacity="1"></use></g></g></g></g></svg>